<svg xmlns="http://www.w3.org/2000/svg" viewBox="0 0 24 24" id="File-Locked-Line--Streamline-Mingcute" height="24" width="24">
  <desc>
    File Locked Line Streamline Icon: https://streamlinehq.com
  </desc>
  <g fill="none" fill-rule="evenodd">
    <path d="M24 0v24H0V0h24ZM12.593 23.258l-0.011 0.002 -0.071 0.035 -0.02 0.004 -0.014 -0.004 -0.071 -0.035c-0.01 -0.004 -0.019 -0.001 -0.024 0.005l-0.004 0.01 -0.017 0.428 0.005 0.02 0.01 0.013 0.104 0.074 0.015 0.004 0.012 -0.004 0.104 -0.074 0.012 -0.016 0.004 -0.017 -0.017 -0.427c-0.002 -0.01 -0.009 -0.017 -0.017 -0.018Zm0.265 -0.113 -0.013 0.002 -0.185 0.093 -0.01 0.01 -0.003 0.011 0.018 0.43 0.005 0.012 0.008 0.007 0.201 0.093c0.012 0.004 0.023 0 0.029 -0.008l0.004 -0.014 -0.034 -0.614c-0.003 -0.012 -0.01 -0.02 -0.02 -0.022Zm-0.715 0.002a0.023 0.023 0 0 0 -0.027 0.006l-0.006 0.014 -0.034 0.614c0 0.012 0.007 0.02 0.017 0.024l0.015 -0.002 0.201 -0.093 0.01 -0.008 0.004 -0.011 0.017 -0.43 -0.003 -0.012 -0.01 -0.01 -0.184 -0.092Z" stroke-width="1"></path>
    <path fill="#2f2f2f" d="M13.586 2a2 2 0 0 1 1.284 0.467l0.13 0.119L19.414 7a2 2 0 0 1 0.578 1.238l0.008 0.176V12h-2v-2h-4.5a1.5 1.5 0 0 1 -1.493 -1.356L12 8.5V4H6v16h6v2H6a2 2 0 0 1 -1.995 -1.85L4 20V4a2 2 0 0 1 1.85 -1.995L6 2h7.586ZM17.5 13a2.5 2.5 0 0 1 2.5 2.5v0.5a1 1 0 0 1 1 1v4a1 1 0 0 1 -1 1h-5a1 1 0 0 1 -1 -1v-4a1 1 0 0 1 1 -1v-0.5a2.5 2.5 0 0 1 2.5 -2.5Zm1.5 5h-3v2h3v-2Zm-1.5 -3a0.5 0.5 0 0 0 -0.5 0.5v0.5h1v-0.5a0.5 0.5 0 0 0 -0.5 -0.5ZM14 4.414V8h3.586L14 4.414Z" stroke-width="1"></path>
  </g>
</svg>