<svg xmlns="http://www.w3.org/2000/svg" viewBox="0 0 24 24" id="Layout-Leftbar-Close-Line--Streamline-Mingcute" height="24" width="24">
  <desc>
    Layout Leftbar Close Line Streamline Icon: https://streamlinehq.com
  </desc>
  <g fill="none" fill-rule="evenodd">
    <path d="M24 0v24H0V0h24ZM12.594 23.258l-0.012 0.002 -0.071 0.035 -0.02 0.004 -0.014 -0.004 -0.071 -0.036c-0.01 -0.003 -0.019 0 -0.024 0.006l-0.004 0.01 -0.017 0.428 0.005 0.02 0.01 0.013 0.104 0.074 0.015 0.004 0.012 -0.004 0.104 -0.074 0.012 -0.016 0.004 -0.017 -0.017 -0.427c-0.002 -0.01 -0.009 -0.017 -0.016 -0.018Zm0.264 -0.113 -0.014 0.002 -0.184 0.093 -0.01 0.01 -0.003 0.011 0.018 0.43 0.005 0.012 0.008 0.008 0.201 0.092c0.012 0.004 0.023 0 0.029 -0.008l0.004 -0.014 -0.034 -0.614c-0.003 -0.012 -0.01 -0.02 -0.02 -0.022Zm-0.715 0.002a0.023 0.023 0 0 0 -0.027 0.006l-0.006 0.014 -0.034 0.614c0 0.012 0.007 0.02 0.017 0.024l0.015 -0.002 0.201 -0.093 0.01 -0.008 0.003 -0.011 0.018 -0.43 -0.003 -0.012 -0.01 -0.01 -0.184 -0.092Z" stroke-width="1"></path>
    <path fill="#2f2f2f" d="M19 3a2 2 0 0 1 2 2v14a2 2 0 0 1 -2 2H5a2 2 0 0 1 -2 -2V5a2 2 0 0 1 2 -2h14ZM8 5H5v14h3V5Zm11 0h-9v14h9V5Zm-4.207 4.172a1 1 0 0 1 1.497 1.32l-0.083 0.094L14.793 12l1.414 1.414a1 1 0 0 1 -1.32 1.498l-0.094 -0.084 -2.121 -2.12a1 1 0 0 1 -0.084 -1.32l0.084 -0.095 2.12 -2.121Z" stroke-width="1"></path>
  </g>
</svg>