<svg xmlns="http://www.w3.org/2000/svg" viewBox="0 0 24 24" id="Loading-3-Line--Streamline-Mingcute" height="24" width="24">
  <desc>
    Loading 3 Line Streamline Icon: https://streamlinehq.com
  </desc>
  <g fill="none" fill-rule="evenodd">
    <path d="m24 0 0 24 -24 0L0 0l24 0ZM12.5934901 23.257841l-0.0115499 0.0016721 -0.0710625 0.0355308 -0.0189986 0.003703 -0.0151639 -0.003703 -0.0710604 -0.0355308c-0.0098319 -0.0031469 -0.0186055 -0.0004896 -0.0235127 0.0053943l-0.0041098 0.0109236 -0.0170913 0.4272787 0.0049537 0.0203897 0.0110101 0.0122145 0.1035729 0.0739792 0.0148714 0.0039203 0.0117661 -0.0039203 0.103575 -0.0739792 0.0126036 -0.0160406 0.0033589 -0.0165636 -0.0170917 -0.4272787c-0.0019886 -0.0101297 -0.0085498 -0.0165317 -0.0160709 -0.01799Zm0.2649005 -0.1125548 -0.0138421 0.002021 -0.1847042 0.0923525 -0.0099621 0.0102455 -0.0026879 0.0112062 0.0179 0.4295275 0.0048406 0.0127789 0.0084511 0.0070753 0.2009542 0.0927458c0.0120883 0.003661 0.0228931 -0.0002514 0.0284884 -0.0080125l0.0039949 -0.0140625 -0.0341458 -0.6146308c-0.0023895 -0.0119434 -0.0102675 -0.0195315 -0.0192871 -0.0212469Zm-0.7153433 0.002021c-0.0098295 -0.0049147 -0.020871 -0.0020466 -0.0274108 0.0052882l-0.0057192 0.0139377 -0.0341459 0.6146308c-0.0006391 0.0115 0.0070385 0.0206963 0.0168767 0.0234037l0.0156079 -0.0013287 0.2009546 -0.0927458 0.0094391 -0.0080584 0.0038546 -0.0117958 0.0178967 -0.4295275 -0.003156 -0.0125938 -0.0094919 -0.0088579 -0.1847058 -0.0923525Z" stroke-width="1"></path>
    <path fill="#2f2f2f" d="M12 4c-4.41828 0 -8 3.58172 -8 8 0 4.4183 3.58172 8 8 8 4.4183 0 8 -3.5817 8 -8 0 -4.41828 -3.5817 -8 -8 -8ZM2 12C2 6.47715 6.47715 2 12 2c5.5228 0 10 4.47715 10 10 0 5.5228 -4.4772 10 -10 10 -5.52285 0 -10 -4.4772 -10 -10Z" opacity=".1" stroke-width="1"></path>
    <path fill="#2f2f2f" d="M12.0001 4c-1.646 0 -3.17308 0.49602 -4.44372 1.34655 -0.38843 0.26001 -0.75296 0.55321 -1.08947 0.87558 -0.39882 0.38205 -1.03184 0.36845 -1.41389 -0.03037s-0.36845 -1.03184 0.03037 -1.41389c0.42002 -0.40235 0.87517 -0.76848 1.36047 -1.09333C8.03342 2.62052 9.94582 2 12.0001 2c0.5523 0 1 0.44772 1 1s-0.4477 1 -1 1Z" stroke-width="1"></path>
  </g>
</svg>