<svg xmlns="http://www.w3.org/2000/svg" viewBox="0 0 24 24" id="Play-Circle-Line--Streamline-Mingcute" height="24" width="24">
  <desc>
    Play Circle Line Streamline Icon: https://streamlinehq.com
  </desc>
  <g fill="none" fill-rule="evenodd">
    <path d="M24 0v24H0V0h24ZM12.593 23.258l-0.011 0.002 -0.071 0.035 -0.02 0.004 -0.014 -0.004 -0.071 -0.035c-0.01 -0.004 -0.019 -0.001 -0.024 0.005l-0.004 0.01 -0.017 0.428 0.005 0.02 0.01 0.013 0.104 0.074 0.015 0.004 0.012 -0.004 0.104 -0.074 0.012 -0.016 0.004 -0.017 -0.017 -0.427c-0.002 -0.01 -0.009 -0.017 -0.017 -0.018Zm0.265 -0.113 -0.013 0.002 -0.185 0.093 -0.01 0.01 -0.003 0.011 0.018 0.43 0.005 0.012 0.008 0.007 0.201 0.093c0.012 0.004 0.023 0 0.029 -0.008l0.004 -0.014 -0.034 -0.614c-0.003 -0.012 -0.01 -0.02 -0.02 -0.022Zm-0.715 0.002a0.023 0.023 0 0 0 -0.027 0.006l-0.006 0.014 -0.034 0.614c0 0.012 0.007 0.02 0.017 0.024l0.015 -0.002 0.201 -0.093 0.01 -0.008 0.004 -0.011 0.017 -0.43 -0.003 -0.012 -0.01 -0.01 -0.184 -0.092Z" stroke-width="1"></path>
    <path fill="#2f2f2f" d="M12 2c5.523 0 10 4.477 10 10s-4.477 10 -10 10S2 17.523 2 12 6.477 2 12 2Zm0 2a8 8 0 1 0 0 16 8 8 0 0 0 0 -16ZM8.964 8.65a1.192 1.192 0 0 1 1.654 -0.953l0.325 0.143 0.44 0.202 0.349 0.169 0.39 0.196 0.43 0.223 0.462 0.251 0.494 0.28 0.249 0.145 0.469 0.282 0.428 0.268 0.564 0.368 0.464 0.318 0.455 0.328 0.083 0.061c0.635 0.477 0.64 1.429 0.001 1.909l-0.283 0.209 -0.393 0.276 -0.496 0.335 -0.387 0.25 -0.43 0.27 -0.473 0.283c-0.082 0.049 -0.166 0.098 -0.252 0.147l-0.498 0.282 -0.466 0.253 -0.43 0.224 -0.39 0.196 -0.505 0.242 -0.4 0.181 -0.202 0.088a1.192 1.192 0 0 1 -1.651 -0.954l-0.054 -0.499 -0.03 -0.334 -0.042 -0.599 -0.024 -0.46 -0.018 -0.506 -0.01 -0.549v-0.579l0.01 -0.548 0.018 -0.506 0.024 -0.46 0.042 -0.599 0.071 -0.73 0.012 -0.103Zm1.884 1.355 -0.027 0.467 -0.021 0.525 -0.012 0.58v0.618l0.012 0.58 0.02 0.525 0.028 0.467 0.416 -0.21 0.226 -0.118 0.488 -0.262 0.53 -0.299 0.522 -0.309 0.242 -0.148 0.444 -0.28 0.39 -0.255 -0.392 -0.257 -0.444 -0.281 -0.496 -0.3a29.503 29.503 0 0 0 -0.793 -0.453l-0.488 -0.262 -0.442 -0.227 -0.203 -0.101Z" stroke-width="1"></path>
  </g>
</svg>