<svg xmlns="http://www.w3.org/2000/svg" viewBox="0 0 24 24" id="Play-Line--Streamline-Mingcute" height="24" width="24">
  <desc>
    Play Line Streamline Icon: https://streamlinehq.com
  </desc>
  <g fill="none" fill-rule="evenodd">
    <path d="M24 0v24H0V0h24ZM12.593 23.258l-0.011 0.002 -0.071 0.035 -0.02 0.004 -0.014 -0.004 -0.071 -0.035c-0.01 -0.004 -0.019 -0.001 -0.024 0.005l-0.004 0.01 -0.017 0.428 0.005 0.02 0.01 0.013 0.104 0.074 0.015 0.004 0.012 -0.004 0.104 -0.074 0.012 -0.016 0.004 -0.017 -0.017 -0.427c-0.002 -0.01 -0.009 -0.017 -0.017 -0.018Zm0.265 -0.113 -0.013 0.002 -0.185 0.093 -0.01 0.01 -0.003 0.011 0.018 0.43 0.005 0.012 0.008 0.007 0.201 0.093c0.012 0.004 0.023 0 0.029 -0.008l0.004 -0.014 -0.034 -0.614c-0.003 -0.012 -0.01 -0.02 -0.02 -0.022Zm-0.715 0.002a0.023 0.023 0 0 0 -0.027 0.006l-0.006 0.014 -0.034 0.614c0 0.012 0.007 0.02 0.017 0.024l0.015 -0.002 0.201 -0.093 0.01 -0.008 0.004 -0.011 0.017 -0.43 -0.003 -0.012 -0.01 -0.01 -0.184 -0.092Z" stroke-width="1"></path>
    <path fill="#2f2f2f" d="M7.575 5.708a62.407 62.407 0 0 0 -0.302 6.287c0 2.801 0.17 4.997 0.302 6.289a62.713 62.713 0 0 0 5.595 -2.887 62.704 62.704 0 0 0 5.296 -3.401 62.886 62.886 0 0 0 -5.295 -3.405 62.882 62.882 0 0 0 -5.596 -2.883ZM5.67 4.76a1.469 1.469 0 0 1 2.04 -1.177c1.062 0.454 3.442 1.533 6.462 3.276 3.021 1.744 5.146 3.267 6.069 3.958 0.788 0.591 0.79 1.763 0.001 2.356 -0.914 0.687 -3.013 2.19 -6.07 3.956 -3.06 1.766 -5.412 2.832 -6.464 3.28 -0.906 0.387 -1.92 -0.2 -2.038 -1.177 -0.138 -1.142 -0.396 -3.735 -0.396 -7.237 0 -3.5 0.257 -6.092 0.396 -7.235Z" stroke-width="1"></path>
  </g>
</svg>