<svg xmlns="http://www.w3.org/2000/svg" viewBox="0 0 24 24" id="Settings-2-Line--Streamline-Mingcute" height="24" width="24">
  <desc>
    Settings 2 Line Streamline Icon: https://streamlinehq.com
  </desc>
  <g fill="none" fill-rule="evenodd">
    <path d="M24 0v24H0V0h24ZM12.593 23.258l-0.011 0.002 -0.071 0.035 -0.02 0.004 -0.014 -0.004 -0.071 -0.035c-0.01 -0.004 -0.019 -0.001 -0.024 0.005l-0.004 0.01 -0.017 0.428 0.005 0.02 0.01 0.013 0.104 0.074 0.015 0.004 0.012 -0.004 0.104 -0.074 0.012 -0.016 0.004 -0.017 -0.017 -0.427c-0.002 -0.01 -0.009 -0.017 -0.017 -0.018Zm0.265 -0.113 -0.013 0.002 -0.185 0.093 -0.01 0.01 -0.003 0.011 0.018 0.43 0.005 0.012 0.008 0.007 0.201 0.093c0.012 0.004 0.023 0 0.029 -0.008l0.004 -0.014 -0.034 -0.614c-0.003 -0.012 -0.01 -0.02 -0.02 -0.022Zm-0.715 0.002a0.023 0.023 0 0 0 -0.027 0.006l-0.006 0.014 -0.034 0.614c0 0.012 0.007 0.02 0.017 0.024l0.015 -0.002 0.201 -0.093 0.01 -0.008 0.004 -0.011 0.017 -0.43 -0.003 -0.012 -0.01 -0.01 -0.184 -0.092Z" stroke-width="1"></path>
    <path fill="#2f2f2f" d="M18 4a1 1 0 1 0 -2 0v1H4a1 1 0 0 0 0 2h12v1a1 1 0 1 0 2 0V7h2a1 1 0 1 0 0 -2h-2V4ZM4 11a1 1 0 1 0 0 2h2v1a1 1 0 1 0 2 0v-1h12a1 1 0 1 0 0 -2H8v-1a1 1 0 0 0 -2 0v1H4Zm-1 7a1 1 0 0 1 1 -1h12v-1a1 1 0 1 1 2 0v1h2a1 1 0 1 1 0 2h-2v1a1 1 0 1 1 -2 0v-1H4a1 1 0 0 1 -1 -1Z" stroke-width="1"></path>
  </g>
</svg>